<?xml version="1.0" encoding="utf-8"?>
<svg id="master-artboard" viewBox="0 0 52 52" version="1.1" xmlns="http://www.w3.org/2000/svg" x="0px" y="0px" style="enable-background:new 0 0 1400 980;" width="52px" height="52px"><defs><style id="ee-google-fonts">@import url(https://fonts.googleapis.com/css?family=Anton:400|Roboto+Slab:100,300,400,700);</style><path id="text-path-0" d="M 778.8464965820312 213.4612274169922 A 100 18 0 0 1 988.3533935546875 213.4612274169922 A 100 18 0 0 1 778.8464965820312 213.4612274169922 Z" style="fill: none; stroke: red; stroke-width: 2;"/><path id="text-path-1" d="M 664.5464477539062 37.96122741699219 A 100 19 0 0 1 876.5812377929688 37.96122741699219 A 100 19 0 0 1 664.5464477539062 37.96122741699219" style="fill: none; stroke: red; stroke-width: 2;"/><path id="text-path-2" d="M 765.3650512695312 211.70851135253906 A 100 17 0 0 1 991.5017700195312 211.70851135253906 A 100 17 0 0 1 765.3650512695312 211.70851135253906" style="fill: none; stroke: red; stroke-width: 2;"/><path id="path-1" d="M 765.3650512695312 211.70851135253906 A 100 17 0 0 1 991.5017700195312 211.70851135253906 A 100 17 0 0 1 765.3650512695312 211.70851135253906" style="fill: none; stroke: red; stroke-width: 2;"/></defs><rect id="ee-background" x="0" y="0" width="52" height="52" style="fill: white; fill-opacity: 0; pointer-events: none;"/>


<g transform="matrix(0.10051815211772919, 0, 0, 0.10319900512695314, -6.428940773010268, 2.5486831665039134)"><g>
	<path d="M309.1,21.01v328.55c-0.14,0.01-0.27,0.01-0.41,0.01&#10;&#9;&#9;c-21.85,0-41.95-7.47-57.9-20c-21.82-17.16-35.84-43.8-35.85-73.72h-0.01V114.77h0.01v-0.03c0-29.65,13.77-56.1,35.27-73.28&#10;&#9;&#9;C266.25,28.66,286.58,21,308.69,21C308.83,21,308.96,21,309.1,21.01z" style="stroke: rgb(0, 0, 0); stroke-width: 0; stroke-opacity: 1;"/>
	<path d="M426.05,21.01v328.55c-0.14,0.01-0.27,0.01-0.41,0.01&#10;&#9;&#9;c-22.12,0-42.45-7.66-58.47-20.47c-1.71-1.36-3.36-2.78-4.96-4.26c-18.63-17.12-30.3-41.69-30.31-68.99h-0.01V114.77h0.01v-0.03&#10;&#9;&#9;c0-29.65,13.77-56.1,35.27-73.28C383.2,28.66,403.52,21,425.64,21C425.78,21,425.91,21,426.05,21.01z" style="stroke: rgb(0, 0, 0); stroke-width: 0; stroke-opacity: 1;"/>
	<path d="M543,114.77v245.96h-0.41&#10;&#9;&#9;c-0.02,51.76-41.98,93.72-93.74,93.72h-0.01V21h0.01c51.77,0,93.74,41.97,93.74,93.74v0.03H543z" style="stroke: rgb(0, 0, 0); stroke-width: 0; stroke-opacity: 1;"/>
	<path d="M192.15,21.01v329.48c-0.14,0.01-0.27,0.01-0.41,0.01&#10;&#9;&#9;c-51.77,0-93.74-41.97-93.74-93.74c0-0.3,0-0.6,0.01-0.9h-0.02V114.77H98v-0.03C98,62.97,139.97,21,191.74,21&#10;&#9;&#9;C191.88,21,192.01,21,192.15,21.01z" style="stroke: rgb(0, 0, 0); stroke-width: 0; stroke-opacity: 1;"/>
</g></g></svg>